<svg xmlns="http://www.w3.org/2000/svg" xmlns:xlink="http://www.w3.org/1999/xlink" version="1.1" width="256" height="256" viewBox="0 0 256 256" xml:space="preserve">

<defs>
</defs>
<g style="stroke: none; stroke-width: 0; stroke-dasharray: none; stroke-linecap: butt; stroke-linejoin: miter; stroke-miterlimit: 10; fill: none; fill-rule: nonzero; opacity: 1;" transform="translate(1.4065934065934016 1.4065934065934016) scale(2.81 2.81)" >
	<path d="M 21.318 71.671 c 2.459 -20.209 18.716 -33.875 33.192 -39.994 C 35.258 48.541 27.242 63.394 25.548 90 h 4.772 c 0.068 -5.109 0.74 -9.877 1.858 -14.393 c 16.66 1.308 30.312 -3.716 38.722 -18.74 C 80.738 35.723 71.282 17.757 60.561 0 c -1.096 19.923 -33.438 24.956 -39.945 49.585 c -1.374 5.199 -2.361 10.225 -2.913 15.216" style="stroke: none; stroke-width: 1; stroke-dasharray: none; stroke-linecap: butt; stroke-linejoin: miter; stroke-miterlimit: 10; fill: rgb(127,178,65); fill-rule: nonzero; opacity: 1;" transform=" matrix(1 0 0 1 0 0) " stroke-linecap="round" />
	<path d="M 21.844 49.905 C 32.338 26.894 61.111 20.591 60.561 0 c -3.055 15.979 -26.319 15.979 -38.303 31.958 c -6.862 9.601 -9.917 20.161 -4.555 32.844 C 18.255 59.81 19.726 54.847 21.844 49.905 z" style="stroke: none; stroke-width: 1; stroke-dasharray: none; stroke-linecap: butt; stroke-linejoin: miter; stroke-miterlimit: 10; fill: rgb(113,156,64); fill-rule: nonzero; opacity: 1;" transform=" matrix(1 0 0 1 0 0) " stroke-linecap="round" />
</g>
</svg>