<?xml version="1.0" encoding="utf-8"?>
<!-- Generator: Adobe Illustrator 25.4.1, SVG Export Plug-In . SVG Version: 6.00 Build 0)  -->
<svg version="1.1" id="Layer_1" xmlns="http://www.w3.org/2000/svg" xmlns:xlink="http://www.w3.org/1999/xlink" x="0px" y="0px"
	 viewBox="0 0 400.7 190.3" style="enable-background:new 0 0 400.7 190.3;" xml:space="preserve">
<style type="text/css">
	.st0{fill:#005944;}
</style>
<g>
	<path class="st0" d="M145.2,16.5c0,0.4,0,0.8,0,1.2c0,34.2,0,68.4,0,102.6c0,12.9-4.2,24.3-12.3,34.3c-6.4,7.9-14.4,13.8-23.3,18.6
		c-0.4,0.2-0.9,0.4-1.3,0.6c1.6-1.2,3.3-2.4,4.9-3.6c6.5-5,12.3-10.7,16.7-17.6c4.1-6.4,6.6-13.4,7.8-20.8c0.7-4.7,1-9.5,1-14.3
		c0-32,0-64,0-96v-1.2H21.1c0.3-0.2,0.4-0.4,0.5-0.5c1.3-0.9,2.6-1.8,3.9-2.8c0.2-0.2,0.4-0.3,0.6-0.5H145.2"/>
	<path class="st0" d="M87.7,93.8c-0.6-0.1-1.3-0.1-2-0.2c-2.6-0.5-4.3-2.5-4.3-5.1c0-1.1,0.1-2.2,0.3-3.3c0.5-3,2.6-3.7,5.2-3.3
		c0.4,0.1,0.8,0.2,1.1,0.3c0.9,0.4,1.9,0.4,2.9,0.2c1.3-0.3,2.4,0,3.5,0.8c1.3,0.9,1.3,2.2,1,3.5c-0.2,1.2-0.6,2.4-1,3.7
		c-0.6,2.2-2.2,3.1-4.3,3.3C89.3,93.7,88.6,93.7,87.7,93.8"/>
	<path class="st0" d="M116.7,78.2c-0.8,0.1-1.7,0.1-2.5,0.2c-2.5,0.2-4.1-1.3-5.2-3.2c-1-1.8-0.5-3.5,0.7-5c1.4-1.8,3.2-2.8,5.6-2.3
		c0.7,0.1,1.4-0.2,2.1-0.3c0.5-0.1,1.1-0.3,1.6-0.4c1.5-0.2,2.7,0.4,3.7,1.6c1.8,2.4,1.7,4.8-0.3,7.1
		C120.9,77.7,119.4,78.3,116.7,78.2"/>
	<path class="st0" d="M116.4,106c-0.6,0.1-1.3,0.2-1.9,0.3c-0.8,0.2-1.6,0.1-2.3-0.3c-2.5-1.4-3.7-3.6-4.1-6.3
		c-0.1-0.9-0.1-1.7,0-2.6c0.1-1.5,2-3,3.6-2.5c1.7,0.5,3.3,0.2,4.8-0.4c0.6-0.2,1.2-0.4,1.9-0.5c0.7-0.2,1.3,0.1,1.8,0.7
		c1.1,1.2,1.4,2.7,1.3,4.3c-0.1,1.4-0.4,2.7-0.7,4.1C120.3,105,118.7,106.2,116.4,106"/>
	<path class="st0" d="M102.8,163.3c-2.7-0.2-5.4-0.2-8-0.6c-2.1-0.3-3.6-1.7-5-3.3c-2.3-2.6-3.6-5.7-3.9-9.2
		c-0.5-5.4-1-10.9-0.9-16.3c0-2.6,0.2-5.3,0.3-7.9c0-1.3-0.2-2.6,0-3.9c0.1-0.8,0.6-1.7,1.1-2.3c1.9-2.1,3.8-4.1,5.9-6
		c1.7-1.6,3.7-3,5.6-4.4c1.3-1,2.7-1.8,3.6-3.2c0.3,1.3-0.2,2.4-1.3,3.3c-1.6,1.3-3.3,2.4-4.8,3.9c-2.2,2.2-4.2,4.5-6.2,6.8
		c-1.3,1.4-1.5,3.1-1.5,4.8c-0.1,4.6-0.3,9.1-0.2,13.7c0.1,4.6,0.3,9.2,1.3,13.8c0.4,2,1.1,4,2.4,5.7c1.8,2.5,4.5,3.6,7.4,4.2
		c1.5,0.3,2.9,0.5,4.4,0.7C102.8,163.2,102.8,163.2,102.8,163.3"/>
	<path class="st0" d="M64.6,105.9c0-2.8,0.4-4.6,2.1-5.8c0.8-0.6,1.7-0.7,2.6-0.6c1.7,0.3,3.3,0.6,5,0.8c1.6,0.3,2.9,1.4,3.2,3.1
		c0.3,1.7,0.4,3.3,0,5c-0.3,1.3-1.2,2.2-2.5,2.5c-2.9,0.7-5.6,0.3-8.2-1.1C65.1,108.7,64.6,107,64.6,105.9"/>
	<path class="st0" d="M103,50.9c0,3.5-2,5.6-5.5,6.1c-1.8,0.2-3.6,0-5.3-0.7c-2.6-1-3.1-2.2-2.6-4.8c0.3-1.7,1.1-3.2,2.1-4.5
		c1.1-1.5,2.4-1.8,4.1-1.1c0.6,0.2,1.1,0.4,1.8,0.2c2.4-0.6,5.3,1.6,5.4,4.1C103,50.4,103,50.7,103,50.9"/>
	<path class="st0" d="M59.1,80.6c1,0.1,2,0.2,2.9,0.4c3.8,1,5.1,5.6,2.5,8.6c-2.2,2.6-5,3-8.1,2.1c-2.8-0.8-3.2-1.7-3.7-4.7
		c-0.2-1-0.1-2,0-3c0.1-1.2,0.8-2.1,2-2.6C56.1,80.9,57.5,80.7,59.1,80.6"/>
	<path class="st0" d="M64.1,163.3c1-0.2,2.8-0.4,4.6-0.8c4.5-0.9,7.5-3.6,8.6-8c0.7-2.5,1.1-5,1.3-7.5c0.6-5.6,0.5-11.2,0.4-16.9
		c0-2.2-0.1-4.3-0.1-6.5c0-2.7-1.1-5-3-6.9c-0.4-0.4-0.8-0.8-1.3-1.2c0.8-0.3,1.3,0,1.8,0.3c1.9,1,3.2,2.5,4.1,4.4
		c0.2,0.4,0.6,0.7,0.9,1.1c0.2,0.3,0.5,0.6,0.5,0.9c0,0.8-0.1,1.5-0.2,2.3c-0.1,1.1-0.3,2.2-0.3,3.3c0,3.5,0.3,6.9,0.2,10.4
		c-0.2,4.7-0.4,9.5-1.2,14.2c-0.7,4.7-3.3,8.5-7.9,10.4c-1,0.4-2.2,0.5-3.4,0.5C67.2,163.3,65.2,163.3,64.1,163.3"/>
	<path class="st0" d="M57.1,66c0,2.1-0.6,3.8-2.4,5.1c-0.8,0.6-1.6,0.9-2.7,0.7c-0.6-0.1-1.3,0-2,0c-1.6,0-2.9-0.6-3.8-2
		c-1.2-1.9-1.8-3.9-1.6-6.1c0.2-2.3,1.9-3.4,4.4-3.1c0.9,0.1,1.8-0.1,2.6-0.2c0.3,0,0.5-0.2,0.8-0.2c1.7-0.5,2.9,0.1,3.7,1.6
		C56.9,63.1,57.1,64.5,57.1,66"/>
	<path class="st0" d="M82.1,72c0,2.6-1.3,4.4-3.8,5.1c-2.2,0.7-4.4,0.5-6.5-0.5c-1-0.5-1.7-1.2-2-2.3c-0.5-1.8-0.6-3.6-0.2-5.3
		c0.5-2.3,2.3-3.4,4.6-2.7c1.3,0.4,2.6,0.6,3.9,0.2c0.8-0.2,1.5,0.3,2.1,0.9C81.6,68.6,82.1,70.2,82.1,72"/>
	<path class="st0" d="M68.7,63.8c-0.5,1.9-1.1,3.8-1.7,5.7c-0.9,2.7-2.5,4.9-4.8,6.5c-1.1,0.7-2.2,1.2-3.6,0.8
		c-1.6-0.4-2.4-1.8-1.8-3.3c0.5-1.1,1.2-2.1,2-2.9c2.6-2.7,5.5-5,9-6.5c0.2-0.1,0.4-0.2,0.5-0.2C68.5,63.9,68.7,63.8,68.7,63.8"/>
	<path class="st0" d="M77.7,89.2c-1.4-1.5-3-1.8-4.8-1.7c-2.4,0.1-4.7-1.3-5.2-4c-0.4-2-1.2-3.8-1.8-5.8c-0.1-0.2-0.2-0.5-0.3-0.8
		c2.8,0.7,5.6,1.2,7.8,3c2.3,1.9,3.3,4.4,4,7.2c0.1,0.5,0.2,1.1,0.3,1.6C77.7,88.9,77.7,89,77.7,89.2"/>
	<path class="st0" d="M94.1,97c0.1-1.7,0.8-3.6,3.1-4.5c0,0,0.1,0,0.1-0.1c1.6-1,2.1-0.8,3.3,0.7c1.2,1.6,2.2,3.3,1.8,5.3
		c-0.2,1.3-0.7,2.6-1.1,3.9c-0.5,1.7-0.6,1.7-2.2,1.1c-0.8-0.3-1.5-0.6-2.2-1C95,101.4,94.1,99.8,94.1,97"/>
	<path class="st0" d="M78.6,62.2c-2.8-1.5-5.2-3.1-6.9-5.5c-1-1.4-1.6-3-1.4-4.8c0-0.6,0.3-0.9,0.9-1.1c4.4-1.2,8.8,2.7,8.2,7.4
		C79.3,59.5,78.9,60.8,78.6,62.2"/>
	<path class="st0" d="M72,32.6c1.6,0.6,2.6,1.6,3.2,3c0.9,1.9,0.9,4,0.7,6.1c-0.2,1.9-0.7,3.7-1.6,5.6c-1.7-1.7-3.8-2.9-4.1-5.5
		c-0.3-2.4,0.3-4.7,1-6.9C71.5,34.2,71.8,33.5,72,32.6"/>
	<path class="st0" d="M79.8,36.3c1.5,0.7,2.6,1.8,3.3,3.2c0.5,1.2,0.9,2.5,1.1,3.8c0.4,2.4,0.6,4.8,0.8,7.2c0,0.1,0,0.2-0.1,0.4
		c-0.9-0.6-1.8-1.2-2.6-1.9c-1.9-1.7-3.5-3.7-4-6.3C77.7,40.4,78.3,38.3,79.8,36.3"/>
	<path class="st0" d="M40.2,59.8c0.4-3.9,2.8-7.1,6.1-8c2.2-0.6,4.3-0.4,5.9,1.3c0.7,0.7,1,1.5,1,2.4c0.1,1-0.4,1.5-1.4,1.6
		c-0.4,0-0.7,0-1.1-0.1c-2.9-0.8-5.6,0-8.2,1.3C41.8,58.8,41.1,59.3,40.2,59.8"/>
	<path class="st0" d="M55.9,40.5C60,41,64,41.6,66.9,44.8c1,1.1,1.6,2.5,1.6,4.1c-0.2-0.1-0.4-0.1-0.6-0.2c-1.4-0.7-2.9-1-4.4-1
		c-1,0-2.1-0.1-3.1-0.3c-0.6-0.1-1.2-0.4-1.6-0.9C57.2,45,56.5,42.8,55.9,40.5"/>
	<path class="st0" d="M93.5,35.1c1,1.5,1.8,2.9,1.5,4.7c-0.2,1-0.7,1.8-1.4,2.4c-0.4,0.4-0.9,0.8-1.4,1.1c-1.9,1.2-3.3,3-4.3,5
		c-0.1,0.2-0.2,0.3-0.3,0.4c-1.5-1.7-2-5.5-0.3-7.5c1.6-1.9,3.4-3.6,5.1-5.4C92.8,35.7,93.1,35.4,93.5,35.1"/>
	<path class="st0" d="M83.9,68.1c0.8-4.2,6-8.6,12.2-8.6c-0.1,0.6-0.1,1.3-0.2,1.9c-0.5,2.2-2,3.5-3.8,4.6c-1.6,1-3.4,1.3-5.2,1.6
		C85.9,67.8,85,68,83.9,68.1"/>
	<path class="st0" d="M51.9,79.8c-0.5,1.4-0.9,2.6-1.2,3.9c-0.6,1.8-1.9,2.7-3.6,3c-1.4,0.2-2.8,0.2-4.1,0.5c-1.5,0.3-3,0.7-4.5,1.1
		c0.1-0.1,0.1-0.3,0.3-0.5c1.3-1.6,2.6-3.2,4.1-4.7c0.9-0.8,2.1-1.3,3.2-1.7C47.8,80.7,49.8,80.4,51.9,79.8"/>
	<path class="st0" d="M85.4,110.4c-0.1-3.5-0.1-6.7,0.9-9.9c0.3-1,0.9-2,1.5-2.9c0.3-0.4,0.8-0.8,1.2-1c1.5-0.8,2.1-0.5,2.5,1.2
		c0.3,1.4,0.3,2.9-0.3,4.2C90,105.2,87.9,107.8,85.4,110.4"/>
	<path class="st0" d="M99.1,74.3c2,1.2,4.1,1.6,6.2,2c1.7,0.4,2.8,1.6,3.7,3.1c0.8,1.4,1,3,1.1,4.7c-1.9-1.6-4-2.2-6.3-2.5
		c-2.5-0.3-4.1-2.2-4.5-4.9C99.2,76,99.2,75.2,99.1,74.3"/>
	<path class="st0" d="M117.3,46.3c-0.5,0.7-1.1,1.3-1.6,2c-0.7,1-1.3,1.9-1.9,3c-0.9,1.7-3.1,3-4.7,2.6c-1.4-0.3-2.2-1.4-2.6-2.7
		c-0.3-1.2,0.1-2.1,1-2.9c1.9-1.6,4-2.2,6.5-2C115.2,46.3,116.2,46.3,117.3,46.3"/>
	<path class="st0" d="M99.4,83.6c1.2,0.9,2.7,0.9,4.1,1.1c0.8,0.2,1.5,0.3,2.3,0.5c1,0.2,1.5,0.8,1.7,1.7c0.4,1.6,0,3.2-0.5,4.7
		c-0.3,0.9-0.6,1.9-1,3c-0.2-0.5-0.4-0.8-0.5-1.1c-0.5-1.1-1.2-1.8-2.1-2.5c-1.4-1.1-2.8-2.4-4-3.7C98.4,86.4,98.5,85,99.4,83.6"/>
	<path class="st0" d="M48.5,42.6c2.4-0.7,4.6,0,6.4,1.6c2.2,1.9,2.1,4.6,1.9,7.3c-0.2,0-0.4,0-0.6,0c-1.6-0.6-3.2-1.1-4.7-1.7
		c-1.1-0.5-1.7-1.4-1.9-2.6c-0.2-0.9-0.4-1.9-0.6-2.8C48.9,43.8,48.7,43.3,48.5,42.6"/>
	<path class="st0" d="M127.3,81.2c-2.3,1.2-4.4,2.2-6.5,3.3c-2.8,1.5-5.4,0.6-7.4-1.6c-0.4-0.4-0.6-1-0.9-1.6
		c1.3-0.1,2.5-0.1,3.6-0.2c0.6-0.1,1.3-0.3,1.9-0.6c1.6-1,3.3-1.1,5-0.7C124.4,80.2,125.8,80.7,127.3,81.2"/>
	<path class="st0" d="M109.5,65.1c-1.3,1.4-2.1,3.1-2.9,4.8c-0.4,0.8-0.8,1.5-1.2,2.2c-0.5,0.8-1.4,1.2-2.3,1.1
		c-0.9-0.2-1.8-0.4-2.6-0.8c-1.1-0.5-1.3-1.5-0.9-2.6c0.4-1.1,1.1-2,2.1-2.6C104,65.6,106.7,65.3,109.5,65.1"/>
	<path class="st0" d="M95.5,120.2c0.5-3.1,1.2-6.1,3.7-8.3c0.6-0.5,1.4-0.8,2.1-1c1.7-0.4,2.8,0.7,2.5,2.5c-0.8,3.7-3.3,5.6-6.7,6.6
		c-0.4,0.1-0.8,0.2-1.3,0.3C95.8,120.3,95.8,120.2,95.5,120.2"/>
	<path class="st0" d="M62.2,100.4c-0.8,2.4-0.2,4.6-0.1,6.9c0.2,2.1-0.6,3.6-2.4,4.6c-0.7,0.4-1.4,0.7-2.3,1.2
		c0.1-0.4,0.2-0.7,0.2-0.9c0-1,0.1-2-0.1-2.9c-0.6-2.1-0.3-4.1,0.6-6.1c0.6-1.5,1.8-2.4,3.3-2.6C61.6,100.5,61.8,100.5,62.2,100.4"
		/>
	<path class="st0" d="M78,98.5c-3-0.7-5.8-1.5-7.5-4.1c-0.9-1.4-0.8-2.9-0.1-4.3c0.1-0.2,0.4-0.3,0.6-0.3c3.6,0,5.5,1.3,6.5,5.4
		C77.8,96.2,77.9,97.4,78,98.5"/>
	<path class="st0" d="M37.7,78.3c0.4-0.4,0.8-0.7,1.2-1.1c1.5-1.3,3-2.5,5-2.9c1.7-0.4,3.4-0.1,5.1,0.1c1.2,0.2,2.5,0.3,3.9,0.6
		c-0.2,0.1-0.4,0.2-0.6,0.4c-1.4,0.9-2.7,1.9-4.2,2.8c-1.4,0.8-2.9,0.7-4.5,0.6c-1.4-0.1-2.8-0.4-4.3-0.5c-0.5,0-1,0.1-1.6,0.1
		C37.8,78.4,37.7,78.3,37.7,78.3"/>
	<path class="st0" d="M60.1,95.7c-1.3,1.7-2.5,3.3-3.8,4.9c-0.4,0.5-0.8,0.9-1.1,1.4c-2.1,2.6-4.9,3-8.1,2.4c0-0.1,0.1-0.2,0.1-0.2
		c1.6-1.6,3.2-3.2,4.7-4.8c1.8-1.8,3.7-3.3,6.3-3.6C58.9,95.6,59.5,95.7,60.1,95.7"/>
	<path class="st0" d="M80.4,107.6c-0.2-2.7-0.4-5.4-0.5-8.2c0-1,0.1-1.9,0.3-2.9c0.3-1.3,1-1.9,1.9-1.9c1.4,0,2.7,0.9,3,2.1
		c0.1,0.5,0.1,1.1,0,1.7C84.2,101.9,82.6,104.9,80.4,107.6"/>
	<path class="st0" d="M117.1,54c-0.6,2.6-1.5,4.9-3.5,6.6c-1,0.8-2.1,1.2-3.3,1.2c-1.6,0-3.2,0.3-4.8,0.4c0-1.6,1.6-3.6,3.5-4.4
		c2-0.8,4.1-1.7,6.1-2.6C115.7,54.9,116.3,54.5,117.1,54"/>
	<path class="st0" d="M70.9,61.1c-1.3-0.5-2.6-1.1-3.9-1.6c-2.5-1-4.1-2.7-4.5-5.4c-0.1-0.7,0.1-1.5,0.3-2.2c0.3-0.9,1-1.2,1.8-0.7
		c0.7,0.4,1.3,1,1.8,1.5C68.2,54.6,70.4,58.7,70.9,61.1"/>
	<path class="st0" d="M97.8,42.5c2.5-3,7.6-3.4,11.8-1.1c-1.2,1.7-2.4,3.5-4.2,4.7c-0.6,0.4-1.1,0.3-1.6-0.2c-0.3-0.3-0.5-0.6-0.7-1
		C102,42.9,100.3,42,97.8,42.5"/>
	<path class="st0" d="M125,92.1c-2.7-0.4-5.5-0.3-8-1.7c-1.6-0.9-3.5-1.3-5.2-1.9c1.7-1.2,3.6-2,5.9-1.6c2.5,0.4,4.8,1.3,6.6,3.1
		C124.9,90.5,125.3,91.1,125,92.1"/>
	<path class="st0" d="M39.3,95c0.9-1.5,1.8-2.8,2.6-4.2c0.9-1.5,2.9-2.4,4.6-2.1c0.6,0.1,1,0.4,1,1c-0.1,1.4-0.2,2.8-0.6,4.1
		c-0.4,1.3-1.8,1.6-3,1.6C42.4,95.4,40.8,95.1,39.3,95"/>
	<path class="st0" d="M82.4,62.7c1.1-1.6,1.7-3.4,1.6-5.3c0-1.9-0.5-3.6-1.5-5.5c2.2,1,4.2,1.8,5.8,3.4c0.8,0.8,0.8,1.6,0.4,2.6
		c-0.7,2-2.2,3.2-4.1,4.2c-0.7,0.3-1.4,0.6-2.1,0.8C82.5,62.8,82.4,62.8,82.4,62.7"/>
	<path class="st0" d="M108.4,112.7c-0.2-0.1-0.4-0.1-0.5-0.2c-2.6-1.9-4.5-4.2-4.6-7.5c0-0.9,0.3-1.7,0.5-2.6c0.1-0.5,0.5-0.6,1-0.3
		c1.1,0.6,1.9,1.5,2.5,2.6c1.2,2.2,1.2,4.6,1.2,7C108.5,111.9,108.4,112.3,108.4,112.7"/>
	<path class="st0" d="M71.4,119.8c-1.6-0.6-3.1-1.1-4.6-1.8c-2.1-0.9-3.1-2.8-3.5-5c0-0.2,0.2-0.5,0.3-0.5c0.9-0.2,1.9-0.5,2.8-0.5
		c1.3,0,2.3,0.7,2.7,2C70,115.9,70.7,117.8,71.4,119.8"/>
	<path class="st0" d="M97.1,68.1c-0.2,3.6-0.4,7.2-2.3,10.4c-0.9,1.5-1.6,1.6-3,0.6c-1.6-1.2-1.7-1.9-0.5-3.5
		c0.3-0.4,0.6-0.9,1.1-1.2c1.9-1.6,3.1-3.6,4.3-5.7c0.1-0.1,0.2-0.3,0.3-0.4C96.9,68.2,97,68.2,97.1,68.1"/>
	<path class="st0" d="M80.9,79.7c2.6-4.2,5.9-7.5,10.4-9.6c0,0.1,0.1,0.1,0.1,0.1c-0.8,1.9-1.6,3.8-2.6,5.6
		c-0.5,0.9-1.5,1.6-2.5,2.1c-1.7,0.8-3.6,1.4-5.4,2C80.9,79.8,80.9,79.7,80.9,79.7"/>
	<path class="st0" d="M58.8,52.7c0.1,0.5,0.3,1.1,0.4,1.6c0.5,1.5,1.1,2.9,2.2,4c1.3,1.3,2.3,3.2,2.7,4.7c-4,0.5-7.9-1.9-6.7-7.1
		c0.3-1.1,0.8-2.2,1.1-3.3C58.6,52.6,58.7,52.7,58.8,52.7"/>
	<path class="st0" d="M105.3,54.9c-0.9,2.6-1.5,5.1-2.9,7.3c-0.2,0.3-0.4,0.6-0.7,0.9c-0.6,0.7-1.8,1-2.6,0.6c-0.7-0.3-1-1.1-1-2.1
		c0.1-1,0.6-1.9,1.2-2.6C101,57.3,103,56.1,105.3,54.9"/>
	<path class="st0" d="M78.8,113c0.6,0.3,1.3,0.5,1.8,0.8c0.9,0.6,1.7,1.3,2.5,2c0.9,0.7,1.1,0.7,2-0.1c1.6-1.5,2.8-3.2,3.5-5.3
		c0.4-1.1,1-2,1.5-3c0.1,0,0.2,0.1,0.4,0.1c-0.1,0.8-0.1,1.6-0.2,2.4c-0.4,3.3-2.3,5.6-4.5,7.8c-0.6,0.6-1.2,0.6-1.9,0.3
		c-1.9-0.9-4.3-3.1-5.1-4.9C78.7,113.2,78.8,113.1,78.8,113"/>
	<path class="st0" d="M125.4,62.8c-2.9,1.1-5.6,2.1-8.6,1.9c-0.2,0-0.4-0.1-0.6-0.1c-1-0.2-1.9-0.4-3-0.6c0.3-0.4,0.6-0.9,0.9-1.3
		c0.8-0.8,1.9-1.2,3-1.3C119.9,61.1,122.6,61.8,125.4,62.8"/>
	<path class="st0" d="M64.5,33.6c1.1,1.3,2.3,2.6,3.4,3.9c1.2,1.5,0.5,3.5-1.4,3.9c-0.7,0.2-1.6-0.3-1.9-1C64.2,39.7,64,39,64,38.2
		c0-1.5,0.2-3.1,0.3-4.6C64.3,33.6,64.4,33.6,64.5,33.6"/>
	<path class="st0" d="M85.3,39.9c-0.5-1.3-0.5-2.5-0.4-3.8c0.1-1,0.6-1.9,1.5-2.5c0.8-0.6,1.5-1.2,2.3-1.8
		C90.1,35.1,88.5,38.7,85.3,39.9"/>
	<path class="st0" d="M42,66.2c0.2,0.9,0.2,1.8,0.5,2.6c0.3,0.8,0.8,1.5,1.3,2.4c-0.8,0-1.6,0-2.4-0.1c-1.7-0.4-3.4-0.7-5.4-0.5
		C37.6,68.3,39.4,66.6,42,66.2"/>
	<path class="st0" d="M68,89.8c0.2,3.1-1.4,7.7-4.9,8.5C63.2,95.2,65.4,91.3,68,89.8"/>
	<path class="st0" d="M48.9,97.8c0.2-2.2-0.6-4.6,0.8-6.8c1.9,0.2,3.1,1.4,3.1,3.1c0,0.9-0.4,1.6-1.2,2.1
		C50.7,96.8,49.8,97.3,48.9,97.8"/>
	<path class="st0" d="M97.7,106.4c-0.5,1-2.2,2.4-3.9,3.2c-1-2.4-1.2-4.9-0.7-7.5c0.3,1.4,0.5,2.7,0.8,4c0.4,1.8,0.9,2,2.5,1.1
		C96.8,106.9,97.2,106.6,97.7,106.4"/>
	<path class="st0" d="M206.4,97.5c8.4,14.8,18,29,29.7,43c-5,0-9.2,0.1-13.3-0.1c-0.7,0-1.5-1.2-2-2.1
		c-7.5-12.1-15.1-24.2-22.4-36.3c-1.2-2.1-2.4-3.2-4.9-2.8c-2.3,0.3-4.6,0.2-7,0.1c-2-0.1-2.6,0.6-2.6,2.6
		c0.2,11.8,0.4,23.6,0.5,35.5c0,0.9,0,1.8,0,3h-10.9c-0.6-29.9,2-59.8-1.9-90c4.1,0,8.2,0,12.3,0c7.6,0.1,15.3-1.6,22.9,0.5
		c8.4,2.3,15.3,6.5,18.3,15.2c3.1,9.4-0.1,19.3-8.3,25.3C213.5,93.7,209.9,95.5,206.4,97.5 M183.9,75.2c0,4.4,0.1,8.9,0,13.3
		c-0.1,1.9,0.6,2.9,2.4,3c8.5,0.5,16.6-0.6,23.4-6.2c9.5-7.6,7.5-20.4-3.9-24.9c-6.5-2.5-13.2-2.5-20-1.7c-1.7,0.2-2,1.2-2,2.7
		C183.9,66.1,183.9,70.6,183.9,75.2"/>
	<path class="st0" d="M317.1,141h-11.2c0.2-2.5,0.5-4.8,0.5-7.2c0.1-11.3,0.1-22.6,0.2-34c0-1.6,0.1-3-2.2-2.9
		C290.1,97,276,97,261.8,97c-0.2,0-0.4,0.1-0.9,0.3v43.8h-10.8c-0.9-29.9,2-59.7-1.9-89.7h12.6v37c1.1,0.1,2.1,0.1,3.1,0.1
		c13.1,0,26.3-0.1,39.4,0.1c2.5,0,3.3-0.7,3.3-3.2c-0.1-10.8,0.2-21.6-2.4-32.3c-0.1-0.5,0-1,0-1.8h12.9V141"/>
	<path class="st0" d="M329.9,129.9c4.6,0.8,9.1,2.1,13.7,2.3c5.5,0.2,11.2,0.3,16.5-0.9c9.4-2.3,12.6-11.4,7.1-19.5
		c-2.4-3.5-5.7-6.5-9-9.3c-5.6-4.6-11.7-8.7-17.3-13.3c-6-5-10.7-11-11.6-19.2c-0.9-8,2.5-14.7,9.6-18.7c7.5-4.2,15.7-4.2,23.9-3.4
		c0.2,0,0.4,0.1,0.6,0.1c8.7,1.5,8.8,1.7,7.5,10.4c-5.8-0.6-11.6-1.5-17.4-1.7c-2.8-0.1-5.8,0.8-8.5,1.9c-5.7,2.5-8,8.5-4.8,13.8
		c2.1,3.6,5.2,7,8.5,9.7c5.6,4.8,11.8,8.8,17.6,13.4c5.8,4.7,10.8,10.1,12.7,17.7c3.3,13.5-4.3,24.7-18.5,27.6
		c-9.7,2-19.3,0.7-28.9-1.3c-0.6-0.1-1.5-0.9-1.6-1.4C329.8,135.5,329.9,132.8,329.9,129.9"/>
</g>
</svg>
